<svg width="872" height="176" viewBox="0 0 872 176" fill="none" xmlns="http://www.w3.org/2000/svg">
    <path fill-rule="evenodd" clip-rule="evenodd"
        d="M555 49V51L556 52V55L557 56V84L556 85V86L555 87V88L556 89V90L557 91V119L556 120V123L555 124V125L554 126H573V124L572 123V120L571 119V91L572 90V89L573 88V87L572 86V85L571 84V56L572 55V52L573 51V49H555Z"
        fill="white" />
    <path fill-rule="evenodd" clip-rule="evenodd"
        d="M499 49V51L500 52V55L501 56V83L500 84V86L499 87V88L500 89V90L501 91V119L500 120V123L499 124V125L498 126H517V124L516 123V121L515 120V112L514 111V90L516 88H520L521 89V90L522 91V93L523 94V97L524 98V100L525 101V104L526 105V107L527 108V111L528 112V114L529 115V126H548L546 124V123L544 121V120L543 119V118L542 117V115L541 114V112L540 111V109L539 108V106L538 105V103L537 102V100L536 99V96L535 95V93L534 92V89L533 88V83L534 82V80L535 79V77L536 76V74L537 73V70L538 69V67L539 66V64L540 63V61L541 60V58L542 57V56L543 55V54L545 52V51L546 50V49H528V60L527 61V63L526 64V67L525 68V70L524 71V74L523 75V78L521 80H516L514 78V63L515 62V55L516 54V52L517 51V49H499Z"
        fill="white" />
    <path fill-rule="evenodd" clip-rule="evenodd"
        d="M602 48L601 49H580V52L581 53V60H583L584 59H586L587 58H592L593 57L594 58V59L595 60L594 61V62L595 63L594 64V84L593 85V86L592 87L593 88V90L594 91V120L593 121V123L592 124V126H611L609 124V122L608 121V113L607 112V96L608 95V90L609 89V85L608 84V80L607 79V59L609 57H612L613 58H616L617 59H618L619 60H620L621 59V51L622 50V48H602Z"
        fill="white" />
    <path fill-rule="evenodd" clip-rule="evenodd"
        d="M248 48V50L249 51V53L250 54V63L251 64V75L250 76V77L251 78L250 79V84L249 85V89L250 90V121L249 122V124L248 125V127H249L250 126L251 127L252 126H266V124L265 123V121L264 120V91L265 90V85L264 84V55L265 54V51L266 50V48L265 49L264 48H263L262 49L261 48H248Z"
        fill="white" />
    <path fill-rule="evenodd" clip-rule="evenodd"
        d="M310 47L309 48H307L306 49H305L304 50H303L298 55V56L297 57V58L296 59V63L295 64V66L296 67V71L297 72V73L298 74V75L301 78V79L308 86V87L309 88V90H310L311 91H312L315 94H316L320 98V99L322 101V103L323 104V108L324 109V112L323 113V115L319 119H313L311 117H310L309 116V113L308 112V103L309 102V101L308 100L309 99L308 98L307 99H305L304 100H302L301 101H299L298 102H296V103L295 104V111L296 112V115L297 116V118L299 120V121L302 124H303L304 125H305L307 127H324L325 126H326L327 125H328L329 124H330L333 121V120L334 119V118L335 117V116L336 115V102L335 101V99L334 98V96L332 94V93L330 91V90H329L328 89V88L325 85V84L324 83V81H322L321 80H320L318 78H317L316 77V76H315L313 74V73L310 70V69L309 68V59L312 56H319L322 59V62L323 63V69H324L325 70H327L328 71H330L331 72H332L333 73H335V60L334 59V57L333 56V55L328 50H327L326 49H325L324 48H322L321 47H310Z"
        fill="white" />
    <path fill-rule="evenodd" clip-rule="evenodd"
        d="M645 45L644 46H642L641 47H639L638 48H637V49L636 50H635L633 52V53L631 55V56L630 57V59L629 60V82L628 83V85L627 86V88L628 89V91L629 92V114L630 115V117L631 118V119L632 120V121L638 127H639L640 128H642L643 129H652L653 130L654 129H659L660 128H661L662 127H663L668 122V121L669 120V118L670 117V102L669 101H667L666 100H665L664 99H662L661 98H660L659 97H657V117L654 120H646L643 117V116L642 115V96L643 95V90L644 89V86L643 85V81L642 80V59L646 55H647L648 54H652L653 55H654L657 58V69L658 70H660L661 71H663L664 72H666L667 73H668L669 74H670V59L669 58V56L668 55V53L662 47H661L660 46H658L657 45H645Z"
        fill="white" />
    <path fill-rule="evenodd" clip-rule="evenodd"
        d="M191 45V47L192 48V49L193 50V55L194 56V80L193 81V85L192 86V89L193 90V94L194 95V116L193 117V123L192 124V126L191 127V129H196L197 128H210L209 127V126L208 125V121L207 120V93L208 92H221L222 93V115L221 116V122L220 123V125L219 126V128L220 127H238L237 126V124L236 123V120L235 119V92L236 91V89L237 88V87L236 86V83L235 82V56L236 55V52L237 51V49L238 48H234L233 47H219V48L220 49V51L221 52V57L222 58V81L220 83H208L207 82V56L208 55V51L209 50V48L210 47L209 46H192L191 45Z"
        fill="white" />
    <path fill-rule="evenodd" clip-rule="evenodd"
        d="M717 43L716 44H706V45L707 46V48L708 49V55L709 56V81L708 82H695L694 81V55L695 54V49L696 48V46L697 45H681L680 46H678V47L679 48V50L680 51V55L681 56V81L680 82V85L679 86V88L680 89V92L681 93V120L680 121V125L679 126V128L678 129H686L687 130H697V128L696 127V126L695 125V120L694 119V93L695 92H708L709 93V122L708 123V127L707 128V129L706 130V131H720L721 132H725V129L724 128V127L723 126V120L722 119V96L723 95V90L724 89V85L723 84V80L722 79V54L723 53V48L724 47V45L725 44V43H717Z"
        fill="white" />
    <path fill-rule="evenodd" clip-rule="evenodd"
        d="M154 42L153 43H152L150 45H149L146 48V49L144 51V53L143 54V55L142 56V81L141 82V85L140 86V88L141 89V93L142 94V119L143 120V121L144 122V123L145 124V125L146 126V127L147 128H148L149 129V130H150L151 131H152L153 132H168L169 131H171L172 130H173L175 128H176L179 125V124L180 123V122L181 121V120L182 119V116L183 115V102H182L181 101H179L178 100H177L176 99H174L173 98H172L171 97H170V117L169 118V119L166 122H162L161 123L160 122H158L156 120V119L155 118V94L156 93V90L157 89V86L156 85V80L155 79V57L156 56V55L159 52H166L170 56V68L171 69H172L173 70H175L176 71H177L178 72H180L181 73H183V58L182 57V55L181 54V53L180 52V51L178 49V48L176 46H175L173 44H172L171 43H169L168 42H154Z"
        fill="white" />
    <path fill-rule="evenodd" clip-rule="evenodd"
        d="M759 40L758 41H745L744 42H735V44L736 45V47L737 48V54L738 55V80L737 81V85L736 86V89L737 90V93L738 94V123L737 124V129L736 130V131L735 132L736 133H748L749 134H763L764 135H773V134L772 133V126L771 125V120H770L768 122H766L765 123H752L751 122V88L752 87H756L757 88H761L762 89H764L766 91H767V83L768 82V76H757L756 77L755 76L754 77H753L751 75V52L752 51H761L762 52H766L767 53H768L770 55H771V47L772 46V40H759Z"
        fill="white" />
    <path fill-rule="evenodd" clip-rule="evenodd"
        d="M99 39L100 38H112L113 39H116L117 40H118L119 41H120L123 44H124V45L126 47V48L127 49V50L128 51V52L129 53V57L130 58V84L131 85V86L132 87L131 88V89L130 90V95L129 96V120L128 121V123L127 124V125L126 126V127L120 133H119L118 134H117L116 135H114L113 136H99L98 135H96L94 133H93V132L90 129V128L89 127V126L88 125V123L87 122V97L86 96V90L85 89V86L86 85V80L87 79V53L88 52V50L89 49V48L90 47V46L91 45V44L95 40H96L97 39H99ZM112 49H104L101 52V53L100 54V82L101 83V85L102 86V88L101 89V91L100 92V122L103 125H105L106 126L107 125H112L116 121V91L115 90V88L114 87L115 86V84L116 83V53L112 49Z"
        fill="white" />
    <path fill-rule="evenodd" clip-rule="evenodd"
        d="M829 35L828 36H816L815 37H812V39L813 40V42L814 43V50L815 51V82L814 83L813 82V81L812 80V78L811 77V76L810 75V73L809 72V70L808 69V68L807 67V65L806 64V62L805 61V59L804 58V56L803 55V54L802 53V50L801 49V46L800 45V38H786L785 39H780V40L781 41V43L782 44V47L783 48V83L782 84V85L781 86V88L782 89V91L783 92V128L782 129V132L781 133V134L780 135V136H791L792 137H800V136L799 135V134L798 133V131L797 130V114L796 113V75L797 74H798L799 75V77L800 78V79L801 80V82L802 83V85L803 86V88L804 89V91L805 92V93L806 94V96L807 97V99L808 100V101L809 102V104L810 105V107L811 108V110L812 111V113L813 114V116L814 117V119L815 120V127L814 128V132L813 133V135L812 136V138H818L819 139H831V138L830 137V135L829 134V128L828 127V94L829 93V90L830 89V86L829 85V81L828 80V47L829 46V41L830 40V38L831 37V35H829Z"
        fill="white" />
    <path fill-rule="evenodd" clip-rule="evenodd"
        d="M52 34L51 35H48L47 36H46L40 42V43L39 44V45L38 46V47L37 48V53L36 54V82L35 83V86L34 87V88L35 89V92L36 93V121L37 122V126L38 127V129L39 130V131L41 133V134L45 138H46L47 139H49L50 140H60L61 139H63L64 138H66L68 136H69L72 133V132L74 130V129L76 127V124L77 123V104L76 103H74L73 102H71L70 101H69L68 100H67L66 99H64L65 100V101L64 102L65 103L64 104V124L61 127H60L59 128H54L53 127H52L50 125V122L49 121V99L50 98V91L51 90V88L52 87L51 86V84L50 83V76L49 75V54L50 53V50L54 46H59L60 47H61L64 50V53L65 54V66H66L67 67H68L69 68H71L72 69H73L74 70H75L76 71H78V56L77 55V50L76 49V47L74 45V44L72 42V41L70 39H69L67 37H66L65 36H64L63 35H59L58 34H52Z"
        fill="white" />
    <path fill-rule="evenodd" clip-rule="evenodd"
        d="M276 32H280L282 34H283L285 36V37L284 38H282L281 37H279L278 38H277L274 41V45L275 46V47L276 48H277L278 49H281L282 48H283L285 46H286L287 47V50L286 51V52L284 54V55L283 56H282L280 58H279L278 59V62L279 63H281L283 61H284L288 57V56L289 55V54L290 53V51L291 50V48L290 47V45L289 44V43L287 41V40L286 39V37L284 35V34H283L281 32H276Z"
        fill="white" />
    <path fill-rule="evenodd" clip-rule="evenodd"
        d="M278 40H282L285 43V44L282 47H281L280 48L279 47H278L276 45V42L278 40Z" fill="white" />
    <path fill-rule="evenodd" clip-rule="evenodd"
        d="M454 30L453 31H451L450 32H448L446 34H445L439 40V42L438 43V44L437 45V46L436 47V49L433 52H432L431 53H430L429 52H424L423 51H418L417 50H409L408 49H401L400 48H379L378 49H375L374 50H372L369 53V55L368 56V58L367 59V63L366 64V71L365 72V91L366 92V103L367 104V106L368 107V109L369 110V112L370 113V114L372 116V117L373 118V119L378 124V125H379L380 126V127L381 128H382L383 129V130H384L386 132H387L389 134H392L393 135H400L401 134H404L406 132H407L410 129H411L412 128H413L414 127H419L420 126H423L424 125H426L427 124H429L430 123H433L434 122H439L440 123H454L455 124H461V123H460L448 111H447L444 108L445 107H448L452 111H453L459 117H460L462 119H463L464 120H465L466 121H468L470 119H471L474 116H475L484 107V104L483 105H481L480 104H479L470 95H469L467 93V92L466 91V90L465 89V88L463 86V85L461 83V82L458 79V78L456 76V75L455 74V73L449 67V63L453 59V58L454 57V56L455 55V54L456 53V51L457 50V38L458 37V33L459 32V31H458L457 30H454Z"
        fill="white" />
</svg>