<svg width="121" height="107" viewBox="0 0 121 107" fill="none" xmlns="http://www.w3.org/2000/svg">
<path d="M35.9969 106.994H34.9969H33.9969H32.9969H31.9969H30.9969H29.9969H28.9969L28 105.997L27.9969 105.994H26.9969H25.9969H24.9969L24 104.997L23.9969 104.994L23 103.997L22.9969 103.994H21.9969L21 102.997L20.9969 102.994L20 101.997L19.9969 101.994H18.9969L18 100.997V99.9969L17.9969 99.9937H16.9969L16 98.9969L15.9969 98.9937L15 97.9969V96.9969L14.9969 96.9937H13.9969L13 95.9969V94.9969L12.9969 94.9937L12 93.9969L11.9969 93.9937L11 92.9969L10.9969 92.9937L10 91.9969L9.99686 91.9937L9 90.9969L8.99686 90.9937L8 89.9969V88.9969L7.99686 88.9937L7 87.9969V86.9969L6.99686 86.9937L6 85.9969V84.9969L5.99686 84.9937L5 83.9969L4.99686 83.9937L4 82.9969V81.9969V80.9969L3.99686 80.9937L3 79.9969V78.9969V77.9969L2.99686 77.9937L2 76.9969V75.9969V74.9969L1.99686 74.9937L1 73.9969V72.9969V71.9969V70.9969V69.9969V68.9969V67.9969V66.9969V65.9969V64.9969V63.9969V62.9969L0.996857 62.9937L0 61.9969V60.9969V59.9969V58.9969V57.9969V56.9969V55.9969V54.9969V53.9969V52.9969V51.9969V50.9969V49.9969V48.9969V47.9969V46.9969V45.9969V44.9969V43.9969V42.9969L0.996857 42L1 41.9969V40.9969V39.9969V38.9969V37.9969V36.9969V35.9969V34.9969L1.99686 34L2 33.9969V32.9969V31.9969V30.9969V29.9969L2.99686 29L3 28.9969V27.9969V26.9969L3.99686 26L4 25.9969V24.9969V23.9969L4.99686 23L5 22.9969L5.99686 22L6 21.9969L6.99686 21L7 20.9969L7.99686 20H8.99686H9.99686L10 19.9969L10.9969 19H11.9969H12.9969H13.9969L14 18.9969L14.9969 18H15.9969H16.9969H17.9969H18.9969H19.9969H20.9969H21.9969H22.9969H23.9969H24.9969H25.9969H26.9969H27.9969H28.9969H29.9969H30.9969H31.9969H32.9969H33.9969H34.9969H35.9969L36.9937 18.9969L36.9969 19H37.9969H38.9969H39.9969H40.9969H41.9969H42.9969H43.9969L44.9937 19.9969L44.9969 20H45.9969H46.9969H47.9969H48.9969H49.9969H50.9969H51.9969H52.9969L53.9937 20.9969L53.9969 21H54.9969H55.9969H56.9969H57.9969H58.9969L59.9937 21.9969L59.9969 22H60.9969H61.9969H62.9969H63.9969H64.9969L65.9937 22.9969L65.9969 23H66.9969L67 22.9969L67.9969 22H68.9969L69 21.9969L69.9969 21L70 20.9969L70.9969 20L71 19.9969V18.9969V17.9969L71.9969 17L72 16.9969V15.9969L72.9969 15L73 14.9969V13.9969L73.9969 13L74 12.9969V11.9969V10.9969L74.9969 10L75 9.99686L75.9969 9L76 8.99686L76.9969 8L77 7.99686L77.9969 7L78 6.99686L78.9969 6L79 5.99686L79.9969 5L80 4.99686L80.9969 4H81.9969L82 3.99686L82.9969 3L83 2.99686L83.9969 2H84.9969H85.9969L86 1.99686L86.9969 1H87.9969H88.9969L89 0.996862L89.9969 0H90.9969H91.9969H92.9969L93.9937 0.996862L93.9969 1H94.9969L95.9937 1.99686V2.99686L94.9969 3.99373L94.9937 3.99686V4.99686V5.99686V6.99686V7.99686L93.9969 8.99373L93.9937 8.99686V9.99686V10.9969V11.9969V12.9969V13.9969V14.9969V15.9969V16.9969V17.9969V18.9969V19.9969V20.9969L92.9969 21.9937L92.9937 21.9969V22.9969V23.9969L91.9969 24.9937L91.9937 24.9969V25.9969L90.9969 26.9937L90.9937 26.9969V27.9969L89.9969 28.9937L89.9937 28.9969V29.9969L88.9969 30.9937L88.9937 30.9969L87.9969 31.9937L87.9937 31.9969L86.9969 32.9937L86.9937 32.9969L85.9969 33.9937L85.9937 33.9969V34.9969V35.9969V36.9969V37.9969L85.9969 38L86.9937 38.9969L86.9969 39L87.9937 39.9969L87.9969 40L88.9937 40.9969L88.9969 41L89.9937 41.9969L89.9969 42L90.9937 42.9969L90.9969 43L91.9937 43.9969V44.9969L91.9969 45L92.9937 45.9969V46.9969L92.9969 47L93.9937 47.9969L93.9969 48L94.9937 48.9969V49.9969L94.9969 50L95.9937 50.9969L95.9969 51L96.9937 51.9969L96.9969 52L97.9937 52.9969V53.9969L97.9969 54L98.9937 54.9969L98.9969 55L99.9937 55.9969V56.9969L99.9969 57L100.994 57.9969L100.997 58L101.994 58.9969V59.9969L101.997 60L102.994 60.9969V61.9969L102.997 62L103.994 62.9969V63.9969L103.997 64L104.994 64.9969L104.997 65H105.997L106.994 65.9969L106.997 66L107.994 66.9969L107.997 67L108.994 67.9969L108.997 68L109.994 68.9969L109.997 69L110.994 69.9969L110.997 70L111.994 70.9969L111.997 71L112.994 71.9969L112.997 72L113.994 72.9969L113.997 73L114.994 73.9969L114.997 74H115.997L116.994 74.9969L116.997 75H117.997H118.997L119 74.9969L119.997 74L120.994 74.9969V75.9969V76.9969V77.9969L119.997 78.9937L119.994 78.9969L118.997 79.9937L118.994 79.9969L117.997 80.9937L117.994 80.9969L116.997 81.9937L116.994 81.9969L115.997 82.9937L115.994 82.9969L114.997 83.9937L114.994 83.9969L113.997 84.9937L113.994 84.9969L112.997 85.9937L112.994 85.9969L111.997 86.9937L111.994 86.9969L110.997 87.9937H109.997L109.994 87.9969L108.997 88.9937L108.994 88.9969L107.997 89.9937L107.994 89.9969L106.997 90.9937H105.997L105.994 90.9969L104.997 91.9937L104.994 91.9969L103.997 92.9937H102.997H101.997L101 91.9969L100.997 91.9937H99.9969L99 90.9969L98.9969 90.9937H97.9969L97 89.9969L96.9969 89.9937L96 88.9969L95.9969 88.9937H94.9969L94 87.9969L93.9969 87.9937L93 86.9969L92.9969 86.9937L92 85.9969L91.9969 85.9937L91 84.9969L90.9969 84.9937L90 83.9969L89.9969 83.9937L89 82.9969L88.9969 82.9937H87.9969L87 81.9969L86.9969 81.9937L86 80.9969L85.9969 80.9937L85 79.9969L84.9969 79.9937L84 78.9969L83.9969 78.9937H82.9969H81.9969H80.9969L80.9937 78.9969L80.9969 79L81.9937 79.9969L81.9969 80L82.9937 80.9969L82.9969 81H83.9969L84.9937 81.9969L84.9969 82L85.9937 82.9969L85.9969 83L86.9937 83.9969L86.9969 84L87.9937 84.9969L87.9969 85L88.9937 85.9969L88.9969 86L89.9937 86.9969L89.9969 87L90.9937 87.9969L90.9969 88L91.9937 88.9969L91.9969 89L92.9937 89.9969L92.9969 90L93.9937 90.9969L93.9969 91L94.9937 91.9969L94.9969 92L95.9937 92.9969L95.9969 93H96.9969L97.9937 93.9969V94.9969L96.9969 95.9937H95.9969H94.9969H93.9969H92.9969H91.9969H90.9969L90 94.9969L89.9969 94.9937H88.9969H87.9969H86.9969H85.9969H84.9969H83.9969H82.9969H81.9969H80.9969H79.9969H78.9969H77.9969H76.9969H75.9969L75 93.9969L74.9969 93.9937H73.9969H72.9969H71.9969H70.9969H69.9969L69.9937 93.9969L68.9969 94.9937H67.9969H66.9969H65.9969H64.9969L64.9937 94.9969L63.9969 95.9937H62.9969L62.9937 95.9969L61.9969 96.9937H60.9969H59.9969L59.9937 96.9969L58.9969 97.9937H57.9969H56.9969H55.9969L55.9937 97.9969L54.9969 98.9937H53.9969H52.9969H51.9969H50.9969H49.9969L49.9937 98.9969L48.9969 99.9937H47.9969L47.9937 99.9969L46.9969 100.994H45.9969L45.9937 100.997L44.9969 101.994L44.9937 101.997L43.9969 102.994L43.9937 102.997L42.9969 103.994H41.9969L41.9937 103.997L40.9969 104.994L40.9937 104.997L39.9969 105.994H38.9969H37.9969H36.9969L36.9937 105.997L35.9969 106.994Z" fill="white"/>
</svg>
